<?xml version="1.0" encoding="utf-8"?>
<!-- Generator: Adobe Illustrator 19.0.0, SVG Export Plug-In . SVG Version: 6.00 Build 0)  -->
<svg version="1.1" id="Layer_1" xmlns="http://www.w3.org/2000/svg" xmlns:xlink="http://www.w3.org/1999/xlink" x="0px" y="0px"
	 viewBox="0 0 500 500" style="enable-background:new 0 0 500 500;" xml:space="preserve">
<style type="text/css">
	.st0{fill:url(#SVGID_1_);}
	.st1{fill:url(#SVGID_2_);}
	.st2{fill:url(#SVGID_3_);}
</style>
<g>
	<g>

			<radialGradient id="SVGID_1_" cx="447.418" cy="399.1278" r="412.7221" fx="451.627" fy="401.406" gradientTransform="matrix(0.7483 0 0 0.7483 62.9306 68.0503)" gradientUnits="userSpaceOnUse">
			<stop  offset="0.6837" style="stop-color:#DBE900"/>
			<stop  offset="1" style="stop-color:#000000"/>
		</radialGradient>
		<polygon class="st0" points="133.6,379.7 146.9,355.6 380.1,355.6 235.7,94 265.1,94 422.4,379.7 		"/>
		<g>
			<path d="M134.9,380.5c2.8-5.2,5.7-10.3,8.5-15.5c1.4-2.6,2.8-5.1,4.3-7.7c1-1.8-1.5-0.2-0.3-0.2c5.7,0,11.5,0,17.2,0
				c27.7,0,55.3,0,83,0c44.2,0,88.3,0,132.5,0c1.2,0,1.8-1.3,1.3-2.3c-20.1-36.5-40.3-73-60.4-109.5
				c-26.4-47.8-52.8-95.6-79.2-143.5c-1.6-2.9-3.2-5.8-4.8-8.7c-0.4,0.8-0.9,1.5-1.3,2.3c5.7,0,11.4,0,17.1,0c3.3,0,6.5,0,9.8,0
				c0.8,0,1.5,0,2.3,0c0.8,0-1.4-1.3-1.1-0.6c1.9,3.4,3.7,6.8,5.6,10.2c10.7,19.4,21.3,38.7,32,58.1c30.3,55,60.5,109.9,90.8,164.9
				c9.6,17.5,19.2,34.9,28.9,52.4c0.4-0.8,0.9-1.5,1.3-2.3c-42.5,0-85,0-127.5,0c-52.1,0-104.2,0-156.3,0c-1.7,0-3.4,0-5,0
				c-1.9,0-1.9,3,0,3c42.5,0,85,0,127.5,0c52.1,0,104.2,0,156.3,0c1.7,0,3.4,0,5,0c1.2,0,1.8-1.3,1.3-2.3
				c-19.1-34.6-38.2-69.3-57.2-103.9c-28.7-52.1-57.4-104.3-86.1-156.4c-4.7-8.5-9.3-16.9-14-25.4c-0.3-0.5-0.8-0.7-1.3-0.7
				c-9.8,0-19.6,0-29.4,0c-1.2,0-1.8,1.3-1.3,2.3c20.1,36.5,40.3,73,60.4,109.5c26.4,47.8,52.8,95.6,79.2,143.5
				c1.6,2.9,3.2,5.8,4.8,8.7c0.4-0.8,0.9-1.5,1.3-2.3c-47.1,0-94.3,0-141.4,0c-30.6,0-61.2,0-91.8,0c-0.5,0-1,0.3-1.3,0.7
				c-4.4,8-8.9,16.1-13.3,24.1C131.4,380.7,134,382.2,134.9,380.5z"/>
		</g>
	</g>
	<g>

			<radialGradient id="SVGID_2_" cx="229.9024" cy="86.4175" r="409.686" gradientTransform="matrix(0.7483 0 0 0.7483 62.9306 57.3147)" gradientUnits="userSpaceOnUse">
			<stop  offset="0.6837" style="stop-color:#ED1C24"/>
			<stop  offset="1" style="stop-color:#000000"/>
		</radialGradient>
		<polygon class="st1" points="379.9,355.6 353.3,355.6 236.7,144.4 92.5,405.6 77.6,379.4 235.5,94 		"/>
		<g>
			<path d="M379.9,354.1c-4.4,0-8.9,0-13.3,0c-4.2,0-9.2-0.8-13.3,0c2.6-0.5,1.1,1.4,1,0.3c0-0.4-0.6-1.1-0.8-1.4
				c-0.9-1.7-1.9-3.4-2.8-5.1c-8.4-15.2-16.8-30.5-25.2-45.7c-23.4-42.4-46.8-84.7-70.2-127.1c-5.8-10.5-11.5-20.9-17.3-31.4
				c-0.5-1-2.1-1-2.6,0c-16.3,29.5-32.6,59-48.8,88.4c-25.9,46.9-51.8,93.8-77.7,140.8c-5.9,10.7-11.8,21.4-17.7,32
				c0.9,0,1.7,0,2.6,0c-3-5.2-5.9-10.5-8.9-15.7c-1.7-2.9-3.2-6.1-5.1-8.9c-0.4-0.6-0.9-2.4-0.9-0.9c0,1.4-0.1,0.8,0.1,0.6
				c2.7-3,4.4-8,6.3-11.4c11.6-21,23.2-41.9,34.8-62.9c16.3-29.4,32.5-58.8,48.8-88.2c15-27.1,30-54.2,45-81.3
				c5.1-9.2,10.2-18.4,15.3-27.6c1.6-2.9,3.2-5.7,4.8-8.6c0.6-1.1,2.4-3.3,2.5-4.5c0-0.2,0.2-0.4,0.3-0.6c-0.9,0-1.7,0-2.6,0
				c16.2,29.4,32.5,58.8,48.7,88.2c26,47,51.9,94.1,77.9,141.1c5.9,10.7,11.9,21.5,17.8,32.2c0.9,1.7,3.5,0.2,2.6-1.5
				c-16.2-29.4-32.5-58.8-48.7-88.2c-26-47-51.9-94.1-77.9-141.1c-5.9-10.7-11.9-21.5-17.8-32.2c-0.5-1-2.1-1-2.6,0
				c-6.3,11.3-12.5,22.7-18.8,34c-14.6,26.4-29.2,52.8-43.8,79.2c-16.6,29.9-33.1,59.9-49.7,89.8c-12.4,22.4-24.8,44.8-37.2,67.2
				c-2.6,4.7-5.7,9.4-7.9,14.3c-0.7,1.6-0.6,2.2,0.3,3.8c3.6,6.6,7.4,13.2,11.2,19.7c1,1.7,1.9,3.4,2.9,5.1c0.5,1,2,1,2.6,0
				c16.3-29.5,32.6-59,48.8-88.4c25.9-46.9,51.8-93.8,77.7-140.8c5.9-10.7,11.8-21.4,17.7-32c-0.9,0-1.7,0-2.6,0
				c13.1,23.7,26.2,47.4,39.3,71.2c21,38,41.9,76,62.9,113.9c4.8,8.7,9.6,17.4,14.4,26.1c0.3,0.5,0.8,0.7,1.3,0.7
				c8.9,0,17.8,0,26.7,0C381.9,357.1,381.9,354.1,379.9,354.1z"/>
		</g>
	</g>
	<g>

			<radialGradient id="SVGID_3_" cx="78.6154" cy="430.1098" r="403.9593" gradientTransform="matrix(0.7483 0 0 0.7483 62.9306 69.114)" gradientUnits="userSpaceOnUse">
			<stop  offset="0.6837" style="stop-color:#1200FF"/>
			<stop  offset="1" style="stop-color:#000000"/>
		</radialGradient>
		<polygon class="st2" points="236.9,144 250.2,168.2 133.6,379.4 422.4,379.4 407.7,406 92.5,405.6 		"/>
		<g>
			<path d="M235.6,144.8c2.8,5.2,5.7,10.3,8.5,15.5c1.4,2.6,2.8,5.1,4.3,7.7c1,1.9,0.9-1.2,0.3-0.2c-2.7,4.9-5.4,9.7-8.1,14.6
				c-13.1,23.8-26.3,47.6-39.4,71.4c-22.9,41.6-45.9,83.1-68.8,124.7c0,0,0,0,0,0c-0.5,1,0.1,2.3,1.3,2.3c42.5,0,85,0,127.5,0
				c52.1,0,104.2,0,156.3,0c1.7,0,3.4,0,5,0c-0.4-0.8-0.9-1.5-1.3-2.3c-2.8,5-5.5,10-8.3,15c-1.6,3-3.3,5.9-4.9,8.9
				c-0.4,0.8-0.9,1.6-1.3,2.3c-0.5,1,1.6-0.4,1-0.4c-3.9,0-7.8,0-11.7,0c-22.5,0-45.1-0.1-67.6-0.1c-62.3-0.1-124.5-0.1-186.8-0.2
				c-16.4,0-32.7,0-49.1-0.1c0.4,0.8,0.9,1.5,1.3,2.3c20.1-36.5,40.3-73,60.4-109.5c26.4-47.8,52.8-95.6,79.2-143.5
				c1.6-2.9,3.2-5.8,4.8-8.7c0.9-1.7-1.7-3.2-2.6-1.5c-20.1,36.5-40.3,73-60.4,109.5c-26.4,47.8-52.8,95.6-79.2,143.5
				c-1.6,2.9-3.2,5.8-4.8,8.7c-0.5,1,0.1,2.3,1.3,2.3c40.5,0,81,0.1,121.4,0.1c57.9,0.1,115.7,0.1,173.6,0.2c6.7,0,13.5,0,20.2,0
				c0.5,0,1-0.3,1.3-0.7c4.9-8.9,9.8-17.8,14.7-26.6c0.5-1-0.1-2.3-1.3-2.3c-42.5,0-85,0-127.5,0c-52.1,0-104.2,0-156.3,0
				c-1.7,0-3.4,0-5,0c0.4,0.8,0.9,1.5,1.3,2.3c22.5-40.7,45-81.4,67.4-122.2c13.4-24.2,26.7-48.4,40.1-72.6
				c2.9-5.3,5.8-10.5,8.7-15.8c1-1.9-0.2-3.3-1.2-5c-3.5-6.3-7-12.7-10.5-19c-0.4-0.8-0.8-1.5-1.3-2.3
				C237.2,141.6,234.6,143.1,235.6,144.8z"/>
		</g>
	</g>
</g>
</svg>
